# xmcd
#
# Track frame offsets: 
#        150
#        32709
#        62862
#        104381
#        126141
#        145861
#        174471
#        218080
#        285804
#
# Disc length: 4255 seconds
#
# Revision: 0
# Processed by: cddbd v1.5.2PL0 Copyright (c) Steve Scherf et al.
# Submitted via: ExactAudioCopy v0.99pb5
#
DISCID=7d109d09
DTITLE=Cream  - Sweet Cream (Bell Bottom 015)  
DYEAR=1900
DGENRE=
TTITLE0=White Room
TTITLE1=Politician
TTITLE2=I'm So Glad
TTITLE3=Sittin' On Top of the World
TTITLE4=Crossroads
TTITLE5=Sunshine of Your Love
TTITLE6=Traintime
TTITLE7=Spoonful
TTITLE8=We're Going Wrong
EXTD=
EXTT0=
EXTT1=
EXTT2=
EXTT3=
EXTT4=
EXTT5=
EXTT6=
EXTT7=
EXTT8=
PLAYORDER=
